<svg width="102" height="69" viewBox="0 0 102 69" fill="none" xmlns="http://www.w3.org/2000/svg">
<rect x="0.707107" y="34.0239" width="47.1171" height="47.1171" transform="rotate(-45 0.707107 34.0239)" stroke="#E9E8D4"/>
<rect x="67.9793" y="34.1629" width="23.3122" height="23.3122" transform="rotate(-45 67.9793 34.1629)" stroke="#E9E8D4"/>
<rect x="61.2662" y="40.8207" width="8.98407" height="9.39433" transform="rotate(-45 61.2662 40.8207)" stroke="#E9E8D4"/>
<path d="M28.7634 41.28C32.1834 41.28 34.2034 39.22 34.2034 36.8C34.2034 34.64 33.0634 33.52 31.2234 32.78L29.2834 31.96C28.0234 31.48 26.9634 31.02 26.9634 30.02C26.9634 29.04 27.8034 28.46 29.1034 28.46C30.3234 28.46 31.3034 28.9 32.2434 29.68L33.7434 27.82C32.5434 26.6 30.8634 25.92 29.1034 25.92C26.1234 25.92 23.9834 27.78 23.9834 30.2C23.9834 32.36 25.4834 33.54 26.9834 34.18L28.9634 35.02C30.3034 35.6 31.1834 35.9 31.1834 37.02C31.1834 38.06 30.3634 38.72 28.8234 38.72C27.5234 38.72 26.1234 38.06 25.0634 37.08L23.3634 39.12C24.8034 40.5 26.7634 41.28 28.7634 41.28ZM39.6728 41.28C42.8528 41.28 44.2528 39 44.2528 36.22V26.2H41.2928V35.98C41.2928 38.04 40.6128 38.72 39.3128 38.72C38.4528 38.72 37.6928 38.3 37.1128 37.18L35.0728 38.68C36.0928 40.44 37.5128 41.28 39.6728 41.28Z" fill="#E9E8D4"/>
</svg>
